<svg xmlns="http://www.w3.org/2000/svg" version="1.1" xmlns:xlink="http://www.w3.org/1999/xlink" xmlns:svgjs="http://svgjs.dev/svgjs" viewBox="0 0 800 400"><path d="M67.71300506591797,42.1524658203125C64.12556076049805,92.6756337483724,21.973092397054035,295.3662109375,46.18833923339844,345.2914733886719C70.40358606974284,395.21673583984375,180.71749114990234,371.5994059244792,213.00448608398438,341.70404052734375C245.2914810180664,311.8086751302083,236.62181854248047,165.32137552897134,239.91030883789062,165.91928100585938C243.19879913330078,166.5171864827474,223.61734008789062,316.29296875,232.7354278564453,345.2914733886719C241.853515625,374.28997802734375,276.08370717366535,389.686092376709,294.61883544921875,339.9103088378906C313.15396372477215,290.13452529907227,317.7877502441406,44.84305063883463,343.9461975097656,46.63677215576172C370.1046447753906,48.430493672688804,421.0762481689453,352.1674060821533,451.56951904296875,350.6726379394531C482.0627899169922,349.17786979675293,518.0866902669271,62.9297472635905,526.9058227539062,37.66816329956055C535.7249552408854,12.406579335530598,483.109130859375,195.06726010640463,504.48431396484375,199.10313415527344C525.8594970703125,203.13900820414224,652.0179138183594,58.44543965657552,655.1569213867188,61.88340759277344C658.2959289550781,65.32137552897136,525.4110310872396,174.8878911336263,523.318359375,219.73094177246094C521.2256876627604,264.5739924112956,622.720469156901,312.40658315022785,642.6008911132812,330.94171142578125" fill="none" stroke-width="25" stroke="hsl(0, 0%, 100%)" stroke-linecap="round" transform="matrix(1.1576250000000001,0,0,1.1576250000000001,-1.6594430913925748,-37.04305194950106)"></path><defs><linearGradient id="SvgjsLinearGradient1009"><stop stop-color="hsl(37, 99%, 67%)" offset="0"></stop><stop stop-color="hsl(316, 73%, 52%)" offset="1"></stop></linearGradient></defs></svg>