<svg xmlns="http://www.w3.org/2000/svg" version="1.1" xmlns:xlink="http://www.w3.org/1999/xlink" xmlns:svgjs="http://svgjs.dev/svgjs" viewBox="0 0 800 400"><path d="M233.63229370117188,100.44843292236328C232.1554623413086,113.6831122080485,204.86099039713542,296.12557339986165,210.31390380859375,309.41705322265625C215.76681722005208,322.70853304545085,311.4947539265951,318.4932768249512,319.7309265136719,310.31390380859375C327.96709910074867,302.1345307922363,339.8475215657552,180.55306477864585,340.3587341308594,180.26905822753906C340.86994669596356,179.98505167643228,325.0762452189128,297.7070192972819,327.8027038574219,305.82958984375C330.52916249593096,313.9521603902181,378.1823717244466,322.03885650634766,383.4080810546875,308.5201721191406C388.6337903849284,295.0014877319336,404.4633808390299,90.84304656982422,410.31390380859375,92.37667846679688C416.1644267781576,93.91031036376953,469.6502300008138,331.5993883260091,475.7847595214844,332.73541259765625C481.91928904215496,333.8714368693034,505.86846842447915,117.30045008341472,507.1748962402344,110.31390380859375C508.4813240559896,103.32735753377278,491.4140638224284,220.14947647094726,496.4125671386719,222.42152404785156C501.4110704549154,224.69357162475586,584.7922069295247,146.1315377298991,586.0986328125,146.18833923339844C587.4050586954753,146.24514073689778,515.5067104085286,212.41256017049153,517.0403442382812,223.31838989257812C518.5739780680339,234.22421961466472,604.4065783691407,312.36472412109373,610.3139038085938,318.3856506347656" fill="none" stroke-width="34" stroke="url(&quot;#SvgjsLinearGradient1009&quot;)" stroke-linecap="round" stroke-dasharray="0 0" transform="matrix(1.697543855069354,0,0,1.697543855069354,-295.9153508949994,-160.81971211848582)"></path><defs><linearGradient id="SvgjsLinearGradient1009" gradientTransform="rotate(33, 0.5, 0.5)"><stop stop-color="hsl(212, 72%, 59%)" offset="0"></stop><stop stop-color="hsl(316, 73%, 52%)" offset="1"></stop></linearGradient></defs></svg>